TITLE ""
FILE "LR_black_phrase_E_C03.mp3" MP3
  TRACK 01 AUDIO
    TITLE "LR_black_phrase_E_C03_001"
    INDEX 01 00:00:00
  TRACK 02 AUDIO
    TITLE "LR_black_phrase_E_C03_002"
    INDEX 01 00:00:14
  TRACK 03 AUDIO
    TITLE "LR_black_phrase_E_C03_003"
    INDEX 01 00:01:31
  TRACK 04 AUDIO
    TITLE "LR_black_phrase_E_C03_004"
    INDEX 01 00:01:61
  TRACK 05 AUDIO
    TITLE "LR_black_phrase_E_C03_005"
    INDEX 01 00:04:26
  TRACK 06 AUDIO
    TITLE "LR_black_phrase_E_C03_006"
    INDEX 01 00:05:06
  TRACK 07 AUDIO
    TITLE "LR_black_phrase_E_C03_007"
    INDEX 01 00:07:46
  TRACK 08 AUDIO
    TITLE "LR_black_phrase_E_C03_008"
    INDEX 01 00:08:51
  TRACK 09 AUDIO
    TITLE "LR_black_phrase_E_C03_009"
    INDEX 01 00:09:56
  TRACK 10 AUDIO
    TITLE "LR_black_phrase_E_C03_010"
    INDEX 01 00:10:11
  TRACK 11 AUDIO
    TITLE "LR_black_phrase_E_C03_011"
    INDEX 01 00:11:65
  TRACK 12 AUDIO
    TITLE "LR_black_phrase_E_C03_012"
    INDEX 01 00:12:45
  TRACK 13 AUDIO
    TITLE "LR_black_phrase_E_C03_013"
    INDEX 01 00:14:24
  TRACK 14 AUDIO
    TITLE "LR_black_phrase_E_C03_014"
    INDEX 01 00:15:27
  TRACK 15 AUDIO
    TITLE "LR_black_phrase_E_C03_015"
    INDEX 01 00:16:37
  TRACK 16 AUDIO
    TITLE "LR_black_phrase_E_C03_016"
    INDEX 01 00:16:62
  TRACK 17 AUDIO
    TITLE "LR_black_phrase_E_C03_017"
    INDEX 01 00:19:64
  TRACK 18 AUDIO
    TITLE "LR_black_phrase_E_C03_018"
    INDEX 01 00:20:38
  TRACK 19 AUDIO
    TITLE "LR_black_phrase_E_C03_019"
    INDEX 01 00:23:43
  TRACK 20 AUDIO
    TITLE "LR_black_phrase_E_C03_020"
    INDEX 01 00:24:40
  TRACK 21 AUDIO
    TITLE "LR_black_phrase_E_C03_021"
    INDEX 01 00:25:55
  TRACK 22 AUDIO
    TITLE "LR_black_phrase_E_C03_022"
    INDEX 01 00:26:10
  TRACK 23 AUDIO
    TITLE "LR_black_phrase_E_C03_023"
    INDEX 01 00:28:65
  TRACK 24 AUDIO
    TITLE "LR_black_phrase_E_C03_024"
    INDEX 01 00:29:41
  TRACK 25 AUDIO
    TITLE "LR_black_phrase_E_C03_025"
    INDEX 01 00:32:22
  TRACK 26 AUDIO
    TITLE "LR_black_phrase_E_C03_026"
    INDEX 01 00:33:25
  TRACK 27 AUDIO
    TITLE "LR_black_phrase_E_C03_027"
    INDEX 01 00:34:39
  TRACK 28 AUDIO
    TITLE "LR_black_phrase_E_C03_028"
    INDEX 01 00:34:66
  TRACK 29 AUDIO
    TITLE "LR_black_phrase_E_C03_029"
    INDEX 01 00:37:33
  TRACK 30 AUDIO
    TITLE "LR_black_phrase_E_C03_030"
    INDEX 01 00:38:11
  TRACK 31 AUDIO
    TITLE "LR_black_phrase_E_C03_031"
    INDEX 01 00:40:53
  TRACK 32 AUDIO
    TITLE "LR_black_phrase_E_C03_032"
    INDEX 01 00:41:56
  TRACK 33 AUDIO
    TITLE "LR_black_phrase_E_C03_033"
    INDEX 01 00:42:69
  TRACK 34 AUDIO
    TITLE "LR_black_phrase_E_C03_034"
    INDEX 01 00:43:26
  TRACK 35 AUDIO
    TITLE "LR_black_phrase_E_C03_035"
    INDEX 01 00:44:72
  TRACK 36 AUDIO
    TITLE "LR_black_phrase_E_C03_036"
    INDEX 01 00:45:52
  TRACK 37 AUDIO
    TITLE "LR_black_phrase_E_C03_037"
    INDEX 01 00:47:27
  TRACK 38 AUDIO
    TITLE "LR_black_phrase_E_C03_038"
    INDEX 01 00:48:33
  TRACK 39 AUDIO
    TITLE "LR_black_phrase_E_C03_039"
    INDEX 01 00:49:54
  TRACK 40 AUDIO
    TITLE "LR_black_phrase_E_C03_040"
    INDEX 01 00:49:73
  TRACK 41 AUDIO
    TITLE "LR_black_phrase_E_C03_041"
    INDEX 01 00:52:54
  TRACK 42 AUDIO
    TITLE "LR_black_phrase_E_C03_042"
    INDEX 01 00:53:28
  TRACK 43 AUDIO
    TITLE "LR_black_phrase_E_C03_043"
    INDEX 01 00:56:09
  TRACK 44 AUDIO
    TITLE "LR_black_phrase_E_C03_044"
    INDEX 01 00:57:12
  TRACK 45 AUDIO
    TITLE "LR_black_phrase_E_C03_045"
    INDEX 01 00:58:29
  TRACK 46 AUDIO
    TITLE "LR_black_phrase_E_C03_046"
    INDEX 01 00:58:57
  TRACK 47 AUDIO
    TITLE "LR_black_phrase_E_C03_047"
    INDEX 01 01:00:67
  TRACK 48 AUDIO
    TITLE "LR_black_phrase_E_C03_048"
    INDEX 01 01:01:47
  TRACK 49 AUDIO
    TITLE "LR_black_phrase_E_C03_049"
    INDEX 01 01:03:58
  TRACK 50 AUDIO
    TITLE "LR_black_phrase_E_C03_050"
    INDEX 01 01:04:61
  TRACK 51 AUDIO
    TITLE "LR_black_phrase_E_C03_051"
    INDEX 01 01:05:67
  TRACK 52 AUDIO
    TITLE "LR_black_phrase_E_C03_052"
    INDEX 01 01:06:17
  TRACK 53 AUDIO
    TITLE "LR_black_phrase_E_C03_053"
    INDEX 01 01:08:41
  TRACK 54 AUDIO
    TITLE "LR_black_phrase_E_C03_054"
    INDEX 01 01:09:23
  TRACK 55 AUDIO
    TITLE "LR_black_phrase_E_C03_055"
    INDEX 01 01:11:48
  TRACK 56 AUDIO
    TITLE "LR_black_phrase_E_C03_056"
    INDEX 01 01:12:53
  TRACK 57 AUDIO
    TITLE "LR_black_phrase_E_C03_057"
    INDEX 01 01:13:68
  TRACK 58 AUDIO
    TITLE "LR_black_phrase_E_C03_058"
    INDEX 01 01:14:22
  TRACK 59 AUDIO
    TITLE "LR_black_phrase_E_C03_059"
    INDEX 01 01:16:68
  TRACK 60 AUDIO
    TITLE "LR_black_phrase_E_C03_060"
    INDEX 01 01:17:50
  TRACK 61 AUDIO
    TITLE "LR_black_phrase_E_C03_061"
    INDEX 01 01:20:21
  TRACK 62 AUDIO
    TITLE "LR_black_phrase_E_C03_062"
    INDEX 01 01:21:22
  TRACK 63 AUDIO
    TITLE "LR_black_phrase_E_C03_063"
    INDEX 01 01:22:34
  TRACK 64 AUDIO
    TITLE "LR_black_phrase_E_C03_064"
    INDEX 01 01:22:61
  TRACK 65 AUDIO
    TITLE "LR_black_phrase_E_C03_065"
    INDEX 01 01:25:07
  TRACK 66 AUDIO
    TITLE "LR_black_phrase_E_C03_066"
    INDEX 01 01:25:54
  TRACK 67 AUDIO
    TITLE "LR_black_phrase_E_C03_067"
    INDEX 01 01:27:74
  TRACK 68 AUDIO
    TITLE "LR_black_phrase_E_C03_068"
    INDEX 01 01:28:70
  TRACK 69 AUDIO
    TITLE "LR_black_phrase_E_C03_069"
    INDEX 01 01:30:23
  TRACK 70 AUDIO
    TITLE "LR_black_phrase_E_C03_070"
    INDEX 01 01:30:51
  TRACK 71 AUDIO
    TITLE "LR_black_phrase_E_C03_071"
    INDEX 01 01:32:44
  TRACK 72 AUDIO
    TITLE "LR_black_phrase_E_C03_072"
    INDEX 01 01:33:16
  TRACK 73 AUDIO
    TITLE "LR_black_phrase_E_C03_073"
    INDEX 01 01:35:11
  TRACK 74 AUDIO
    TITLE "LR_black_phrase_E_C03_074"
    INDEX 01 01:36:10
  TRACK 75 AUDIO
    TITLE "LR_black_phrase_E_C03_075"
    INDEX 01 01:37:22
  TRACK 76 AUDIO
    TITLE "LR_black_phrase_E_C03_076"
    INDEX 01 01:37:49
  TRACK 77 AUDIO
    TITLE "LR_black_phrase_E_C03_077"
    INDEX 01 01:39:44
  TRACK 78 AUDIO
    TITLE "LR_black_phrase_E_C03_078"
    INDEX 01 01:40:26
  TRACK 79 AUDIO
    TITLE "LR_black_phrase_E_C03_079"
    INDEX 01 01:42:21
  TRACK 80 AUDIO
    TITLE "LR_black_phrase_E_C03_080"
    INDEX 01 01:43:24
  TRACK 81 AUDIO
    TITLE "LR_black_phrase_E_C03_081"
    INDEX 01 01:44:53
  TRACK 82 AUDIO
    TITLE "LR_black_phrase_E_C03_082"
    INDEX 01 01:45:07
  TRACK 83 AUDIO
    TITLE "LR_black_phrase_E_C03_083"
    INDEX 01 01:47:55
  TRACK 84 AUDIO
    TITLE "LR_black_phrase_E_C03_084"
    INDEX 01 01:48:35
  TRACK 85 AUDIO
    TITLE "LR_black_phrase_E_C03_085"
    INDEX 01 01:51:08
  TRACK 86 AUDIO
    TITLE "LR_black_phrase_E_C03_086"
    INDEX 01 01:52:07
  TRACK 87 AUDIO
    TITLE "LR_black_phrase_E_C03_087"
    INDEX 01 01:53:15
  TRACK 88 AUDIO
    TITLE "LR_black_phrase_E_C03_088"
    INDEX 01 01:53:40
  TRACK 89 AUDIO
    TITLE "LR_black_phrase_E_C03_089"
    INDEX 01 01:55:55
  TRACK 90 AUDIO
    TITLE "LR_black_phrase_E_C03_090"
    INDEX 01 01:56:27
  TRACK 91 AUDIO
    TITLE "LR_black_phrase_E_C03_091"
    INDEX 01 01:58:41
  TRACK 92 AUDIO
    TITLE "LR_black_phrase_E_C03_092"
    INDEX 01 01:59:35
  TRACK 93 AUDIO
    TITLE "LR_black_phrase_E_C03_093"
    INDEX 01 02:00:62
  TRACK 94 AUDIO
    TITLE "LR_black_phrase_E_C03_094"
    INDEX 01 02:01:06
  TRACK 95 AUDIO
    TITLE "LR_black_phrase_E_C03_095"
    INDEX 01 02:03:62
  TRACK 96 AUDIO
    TITLE "LR_black_phrase_E_C03_096"
    INDEX 01 02:04:32
  TRACK 97 AUDIO
    TITLE "LR_black_phrase_E_C03_097"
    INDEX 01 02:07:13
  TRACK 98 AUDIO
    TITLE "LR_black_phrase_E_C03_098"
    INDEX 01 02:08:12
  TRACK 99 AUDIO
    TITLE "LR_black_phrase_E_C03_099"
    INDEX 01 02:09:31
  TRACK 100 AUDIO
    TITLE "LR_black_phrase_E_C03_100"
    INDEX 01 02:09:63
  TRACK 101 AUDIO
    TITLE "LR_black_phrase_E_C03_101"
    INDEX 01 02:11:60
  TRACK 102 AUDIO
    TITLE "LR_black_phrase_E_C03_102"
    INDEX 01 02:12:39
  TRACK 103 AUDIO
    TITLE "LR_black_phrase_E_C03_103"
    INDEX 01 02:14:36
  TRACK 104 AUDIO
    TITLE "LR_black_phrase_E_C03_104"
    INDEX 01 02:15:44
  TRACK 105 AUDIO
    TITLE "LR_black_phrase_E_C03_105"
    INDEX 01 02:16:57
  TRACK 106 AUDIO
    TITLE "LR_black_phrase_E_C03_106"
    INDEX 01 02:17:11
  TRACK 107 AUDIO
    TITLE "LR_black_phrase_E_C03_107"
    INDEX 01 02:19:73
  TRACK 108 AUDIO
    TITLE "LR_black_phrase_E_C03_108"
    INDEX 01 02:20:49
  TRACK 109 AUDIO
    TITLE "LR_black_phrase_E_C03_109"
    INDEX 01 02:23:35
  TRACK 110 AUDIO
    TITLE "LR_black_phrase_E_C03_110"
    INDEX 01 02:24:33
  TRACK 111 AUDIO
    TITLE "LR_black_phrase_E_C03_111"
    INDEX 01 02:25:46
  TRACK 112 AUDIO
    TITLE "LR_black_phrase_E_C03_112"
    INDEX 01 02:25:66
  TRACK 113 AUDIO
    TITLE "LR_black_phrase_E_C03_113"
    INDEX 01 02:28:31
  TRACK 114 AUDIO
    TITLE "LR_black_phrase_E_C03_114"
    INDEX 01 02:29:01
  TRACK 115 AUDIO
    TITLE "LR_black_phrase_E_C03_115"
    INDEX 01 02:31:41
  TRACK 116 AUDIO
    TITLE "LR_black_phrase_E_C03_116"
    INDEX 01 02:32:36
  TRACK 117 AUDIO
    TITLE "LR_black_phrase_E_C03_117"
    INDEX 01 02:33:59
  TRACK 118 AUDIO
    TITLE "LR_black_phrase_E_C03_118"
    INDEX 01 02:34:08
  TRACK 119 AUDIO
    TITLE "LR_black_phrase_E_C03_119"
    INDEX 01 02:36:12
  TRACK 120 AUDIO
    TITLE "LR_black_phrase_E_C03_120"
    INDEX 01 02:36:58
  TRACK 121 AUDIO
    TITLE "LR_black_phrase_E_C03_121"
    INDEX 01 02:38:62
